<svg width="16" height="16" viewBox="0 0 16 16" fill="none" xmlns="http://www.w3.org/2000/svg">
<path d="M7.81441 0.46217C7.88159 0.294876 8.11841 0.294876 8.18559 0.46217L10.0222 5.03574C10.0508 5.10698 10.1177 5.15556 10.1943 5.16075L15.1116 5.49417C15.2914 5.50637 15.3646 5.7316 15.2263 5.84719L11.4441 9.00723C11.3852 9.05646 11.3596 9.13506 11.3784 9.20951L12.5808 13.9891C12.6248 14.164 12.4332 14.3032 12.2805 14.2073L8.10634 11.5868C8.04132 11.5459 7.95868 11.5459 7.89366 11.5868L3.71952 14.2073C3.56684 14.3032 3.37524 14.164 3.41923 13.9891L4.62165 9.20951C4.64038 9.13506 4.61484 9.05646 4.55592 9.00723L0.773745 5.84719C0.635399 5.7316 0.708583 5.50637 0.888449 5.49417L5.80572 5.16075C5.88232 5.15556 5.94918 5.10698 5.97779 5.03574L7.81441 0.46217Z" fill="#FAE41C"/>
</svg>
