<svg width="64" height="16" viewBox="0 0 64 16" fill="none" xmlns="http://www.w3.org/2000/svg">
<path d="M7.81441 0.46217C7.88159 0.294876 8.11841 0.294876 8.18559 0.46217L10.0222 5.03574C10.0508 5.10698 10.1177 5.15556 10.1943 5.16075L15.1116 5.49417C15.2914 5.50637 15.3646 5.7316 15.2263 5.84719L11.4441 9.00723C11.3852 9.05646 11.3596 9.13506 11.3784 9.20951L12.5808 13.9891C12.6248 14.164 12.4332 14.3032 12.2805 14.2073L8.10634 11.5868C8.04132 11.5459 7.95868 11.5459 7.89366 11.5868L3.71952 14.2073C3.56684 14.3032 3.37524 14.164 3.41923 13.9891L4.62165 9.20951C4.64038 9.13506 4.61484 9.05646 4.55592 9.00723L0.773745 5.84719C0.635399 5.7316 0.708583 5.50637 0.888449 5.49417L5.80572 5.16075C5.88232 5.15556 5.94918 5.10698 5.97779 5.03574L7.81441 0.46217Z" fill="#FAE41C"/>
<path d="M23.8144 0.46217C23.8816 0.294876 24.1184 0.294876 24.1856 0.46217L26.0222 5.03574C26.0508 5.10698 26.1177 5.15556 26.1943 5.16075L31.1116 5.49417C31.2914 5.50637 31.3646 5.7316 31.2263 5.84719L27.4441 9.00723C27.3852 9.05646 27.3596 9.13506 27.3784 9.20951L28.5808 13.9891C28.6248 14.164 28.4332 14.3032 28.2805 14.2073L24.1063 11.5868C24.0413 11.5459 23.9587 11.5459 23.8937 11.5868L19.7195 14.2073C19.5668 14.3032 19.3752 14.164 19.4192 13.9891L20.6216 9.20951C20.6404 9.13506 20.6148 9.05646 20.5559 9.00723L16.7737 5.84719C16.6354 5.7316 16.7086 5.50637 16.8884 5.49417L21.8057 5.16075C21.8823 5.15556 21.9492 5.10698 21.9778 5.03574L23.8144 0.46217Z" fill="#FAE41C"/>
<path d="M38.8144 0.46217C38.8816 0.294876 39.1184 0.294876 39.1856 0.46217L41.0222 5.03574C41.0508 5.10698 41.1177 5.15556 41.1943 5.16075L46.1116 5.49417C46.2914 5.50637 46.3646 5.7316 46.2263 5.84719L42.4441 9.00723C42.3852 9.05646 42.3596 9.13506 42.3784 9.20951L43.5808 13.9891C43.6248 14.164 43.4332 14.3032 43.2805 14.2073L39.1063 11.5868C39.0413 11.5459 38.9587 11.5459 38.8937 11.5868L34.7195 14.2073C34.5668 14.3032 34.3752 14.164 34.4192 13.9891L35.6216 9.20951C35.6404 9.13506 35.6148 9.05646 35.5559 9.00723L31.7737 5.84719C31.6354 5.7316 31.7086 5.50637 31.8884 5.49417L36.8057 5.16075C36.8823 5.15556 36.9492 5.10698 36.9778 5.03574L38.8144 0.46217Z" fill="#FAE41C"/>
<path d="M55.8144 0.46217C55.8816 0.294876 56.1184 0.294876 56.1856 0.46217L58.0222 5.03574C58.0508 5.10698 58.1177 5.15556 58.1943 5.16075L63.1116 5.49417C63.2914 5.50637 63.3646 5.7316 63.2263 5.84719L59.4441 9.00723C59.3852 9.05646 59.3596 9.13506 59.3784 9.20951L60.5808 13.9891C60.6248 14.164 60.4332 14.3032 60.2805 14.2073L56.1063 11.5868C56.0413 11.5459 55.9587 11.5459 55.8937 11.5868L51.7195 14.2073C51.5668 14.3032 51.3752 14.164 51.4192 13.9891L52.6216 9.20951C52.6404 9.13506 52.6148 9.05646 52.5559 9.00723L48.7737 5.84719C48.6354 5.7316 48.7086 5.50637 48.8884 5.49417L53.8057 5.16075C53.8823 5.15556 53.9492 5.10698 53.9778 5.03574L55.8144 0.46217Z" fill="#FAE41C"/>
</svg>
