<svg width="81" height="16" viewBox="0 0 81 16" fill="none" xmlns="http://www.w3.org/2000/svg">
<path d="M7.81441 0.46217C7.88159 0.294876 8.11841 0.294876 8.18559 0.46217L10.0222 5.03574C10.0508 5.10698 10.1177 5.15556 10.1943 5.16075L15.1116 5.49417C15.2914 5.50637 15.3646 5.7316 15.2263 5.84719L11.4441 9.00723C11.3852 9.05646 11.3596 9.13506 11.3784 9.20951L12.5808 13.9891C12.6248 14.164 12.4332 14.3032 12.2805 14.2073L8.10634 11.5868C8.04132 11.5459 7.95868 11.5459 7.89366 11.5868L3.71952 14.2073C3.56684 14.3032 3.37524 14.164 3.41923 13.9891L4.62165 9.20951C4.64038 9.13506 4.61484 9.05646 4.55592 9.00723L0.773745 5.84719C0.635399 5.7316 0.708583 5.50637 0.888449 5.49417L5.80572 5.16075C5.88232 5.15556 5.94918 5.10698 5.97779 5.03574L7.81441 0.46217Z" fill="#FAE41C"/>
<path d="M24.8144 0.46217C24.8816 0.294876 25.1184 0.294876 25.1856 0.46217L27.0222 5.03574C27.0508 5.10698 27.1177 5.15556 27.1943 5.16075L32.1116 5.49417C32.2914 5.50637 32.3646 5.7316 32.2263 5.84719L28.4441 9.00723C28.3852 9.05646 28.3596 9.13506 28.3784 9.20951L29.5808 13.9891C29.6248 14.164 29.4332 14.3032 29.2805 14.2073L25.1063 11.5868C25.0413 11.5459 24.9587 11.5459 24.8937 11.5868L20.7195 14.2073C20.5668 14.3032 20.3752 14.164 20.4192 13.9891L21.6216 9.20951C21.6404 9.13506 21.6148 9.05646 21.5559 9.00723L17.7737 5.84719C17.6354 5.7316 17.7086 5.50637 17.8884 5.49417L22.8057 5.16075C22.8823 5.15556 22.9492 5.10698 22.9778 5.03574L24.8144 0.46217Z" fill="#FAE41C"/>
<path d="M40.8144 0.46217C40.8816 0.294876 41.1184 0.294876 41.1856 0.46217L43.0222 5.03574C43.0508 5.10698 43.1177 5.15556 43.1943 5.16075L48.1116 5.49417C48.2914 5.50637 48.3646 5.7316 48.2263 5.84719L44.4441 9.00723C44.3852 9.05646 44.3596 9.13506 44.3784 9.20951L45.5808 13.9891C45.6248 14.164 45.4332 14.3032 45.2805 14.2073L41.1063 11.5868C41.0413 11.5459 40.9587 11.5459 40.8937 11.5868L36.7195 14.2073C36.5668 14.3032 36.3752 14.164 36.4192 13.9891L37.6216 9.20951C37.6404 9.13506 37.6148 9.05646 37.5559 9.00723L33.7737 5.84719C33.6354 5.7316 33.7086 5.50637 33.8884 5.49417L38.8057 5.16075C38.8823 5.15556 38.9492 5.10698 38.9778 5.03574L40.8144 0.46217Z" fill="#FAE41C"/>
<path d="M55.8144 0.46217C55.8816 0.294876 56.1184 0.294876 56.1856 0.46217L58.0222 5.03574C58.0508 5.10698 58.1177 5.15556 58.1943 5.16075L63.1116 5.49417C63.2914 5.50637 63.3646 5.7316 63.2263 5.84719L59.4441 9.00723C59.3852 9.05646 59.3596 9.13506 59.3784 9.20951L60.5808 13.9891C60.6248 14.164 60.4332 14.3032 60.2805 14.2073L56.1063 11.5868C56.0413 11.5459 55.9587 11.5459 55.8937 11.5868L51.7195 14.2073C51.5668 14.3032 51.3752 14.164 51.4192 13.9891L52.6216 9.20951C52.6404 9.13506 52.6148 9.05646 52.5559 9.00723L48.7737 5.84719C48.6354 5.7316 48.7086 5.50637 48.8884 5.49417L53.8057 5.16075C53.8823 5.15556 53.9492 5.10698 53.9778 5.03574L55.8144 0.46217Z" fill="#FAE41C"/>
<path d="M72.8144 0.46217C72.8816 0.294876 73.1184 0.294876 73.1856 0.46217L75.0222 5.03574C75.0508 5.10698 75.1177 5.15556 75.1943 5.16075L80.1116 5.49417C80.2914 5.50637 80.3646 5.7316 80.2263 5.84719L76.4441 9.00723C76.3852 9.05646 76.3596 9.13506 76.3784 9.20951L77.5808 13.9891C77.6248 14.164 77.4332 14.3032 77.2805 14.2073L73.1063 11.5868C73.0413 11.5459 72.9587 11.5459 72.8937 11.5868L68.7195 14.2073C68.5668 14.3032 68.3752 14.164 68.4192 13.9891L69.6216 9.20951C69.6404 9.13506 69.6148 9.05646 69.5559 9.00723L65.7737 5.84719C65.6354 5.7316 65.7086 5.50637 65.8884 5.49417L70.8057 5.16075C70.8823 5.15556 70.9492 5.10698 70.9778 5.03574L72.8144 0.46217Z" fill="#FAE41C"/>
</svg>
