<svg width="195" height="208" viewBox="0 0 195 208" fill="none" xmlns="http://www.w3.org/2000/svg">
<mask id="path-1-inside-1_2_274" fill="white">
<path fill-rule="evenodd" clip-rule="evenodd" d="M31 110.177C13.0682 104.807 0 88.1795 0 68.5C0 44.4756 19.4756 25 43.5 25C48.5995 25 53.4941 25.8775 58.041 27.4897C64.418 11.388 80.1291 0 98.5 0C116.648 0 132.201 11.1137 138.723 26.9066C142.763 25.6671 147.054 25 151.5 25C175.524 25 195 44.4756 195 68.5C195 87.4402 182.895 103.553 166 109.525V161C166 164.866 162.866 168 159 168H38C34.134 168 31 164.866 31 161V110.177Z"/>
</mask>
<path d="M31 110.177H41V102.733L33.869 100.598L31 110.177ZM58.041 27.4897L54.699 36.9148L63.7876 40.1374L67.3384 31.1719L58.041 27.4897ZM138.723 26.9066L129.48 30.7238L132.955 39.1366L141.656 36.4668L138.723 26.9066ZM166 109.525L162.668 100.096L156 102.453V109.525H166ZM33.869 100.598C20.0522 96.4596 10 83.6407 10 68.5H-10C-10 92.7184 6.08418 113.154 28.131 119.757L33.869 100.598ZM10 68.5C10 49.9985 24.9985 35 43.5 35V15C13.9528 15 -10 38.9528 -10 68.5H10ZM43.5 35C47.4451 35 51.2103 35.6777 54.699 36.9148L61.3829 18.0647C55.7779 16.0773 49.7539 15 43.5 15V35ZM67.3384 31.1719C72.2564 18.7541 84.3681 10 98.5 10V-10C75.8901 -10 56.5796 4.02191 48.7436 23.8075L67.3384 31.1719ZM98.5 10C112.461 10 124.45 18.5423 129.48 30.7238L147.966 23.0895C139.952 3.68517 120.836 -10 98.5 -10V10ZM141.656 36.4668C144.757 35.5156 148.059 35 151.5 35V15C146.048 15 140.77 15.8186 135.79 17.3465L141.656 36.4668ZM151.5 35C170.002 35 185 49.9985 185 68.5H205C205 38.9528 181.047 15 151.5 15V35ZM185 68.5C185 83.0705 175.692 95.4928 162.668 100.096L169.332 118.953C190.098 111.614 205 91.8099 205 68.5H185ZM156 109.525V161H176V109.525H156ZM156 161C156 159.343 157.343 158 159 158V178C168.389 178 176 170.389 176 161H156ZM159 158H38V178H159V158ZM38 158C39.6568 158 41 159.343 41 161H21C21 170.389 28.6112 178 38 178V158ZM41 161V110.177H21V161H41Z" fill="white" mask="url(#path-1-inside-1_2_274)"/>
<line x1="40" y1="183" x2="156" y2="183" stroke="white" stroke-width="10" stroke-linecap="round"/>
<line x1="40" y1="203" x2="156" y2="203" stroke="white" stroke-width="10" stroke-linecap="round"/>
</svg>
