<svg width="20" height="20" viewBox="0 0 20 20" fill="none" xmlns="http://www.w3.org/2000/svg">
<path d="M17.5 15.4167C17.5 16.5675 16.5675 17.5 15.4167 17.5H4.58333C3.43292 17.5 2.5 16.5675 2.5 15.4167V4.58333C2.5 3.4325 3.43292 2.5 4.58333 2.5H15.4167C16.5675 2.5 17.5 3.4325 17.5 4.58333V15.4167Z" fill="#3F51B5"/>
<path d="M14.3199 10.4167H12.9166V15.8333H10.8333V10.4167H9.58325V8.74999H10.8333V7.74582C10.8341 6.28416 11.4412 5.41666 13.1633 5.41666H14.5833V7.08332H13.6303C12.9599 7.08332 12.9166 7.33332 12.9166 7.80124V8.74999H14.5833L14.3199 10.4167Z" fill="white"/>
</svg>
