<svg width="20" height="20" viewBox="0 0 20 20" fill="none" xmlns="http://www.w3.org/2000/svg">
<path d="M6.875 4.375C3.76875 4.375 1.25 6.89375 1.25 10C1.25 13.1062 3.76875 15.625 6.875 15.625C9.98125 15.625 12.5 13.1062 12.5 10C12.5 9.61406 12.4578 9.2375 12.3844 8.875L12.3531 8.75H6.875V10.625H10.625C10.3266 12.3984 8.73281 13.75 6.875 13.75C4.80313 13.75 3.125 12.0719 3.125 10C3.125 7.92813 4.80313 6.25 6.875 6.25C7.8125 6.25 8.66719 6.59687 9.325 7.16563L10.6687 5.85C9.66875 4.93438 8.3375 4.375 6.875 4.375ZM15.625 6.875V8.75H13.75V10H15.625V11.875H16.875V10H18.75V8.75H16.875V6.875H15.625Z" fill="black"/>
</svg>
