<svg width="212" height="203" viewBox="0 0 212 203" fill="none" xmlns="http://www.w3.org/2000/svg">
<path d="M85.1455 10.8963C86.3924 8.83512 88.4288 5.82752 86.5905 3.47079C83.6879 -0.250532 76.6047 4.07725 74.0073 5.81886C67.6248 10.0984 61.6094 16.2213 58.213 23.1785C55.9708 27.7714 54.2175 34.2 60.1798 36.5043C64.3491 38.1156 71.0092 38.1184 74.8702 35.6614C76.0135 34.9339 76.8116 35.201 77.1982 33.6545" stroke="white" stroke-width="4" stroke-linecap="round" stroke-linejoin="round"/>
<path d="M96.344 3.67146C93.8468 12.1073 91.6139 20.6272 89.0389 29.0386C88.2611 31.5796 87.5115 34.469 86.149 36.7852C84.9502 38.8232 85.802 34.7997 85.848 34.6379C87.2768 29.6105 89.6631 24.5135 93.2333 20.6498C93.7566 20.0836 96.9753 16.3772 97.7087 18.6028C98.5844 21.2599 97.8474 24.8165 97.3876 27.4732C96.9179 30.1874 95.9791 32.8362 95.7018 35.5811C95.5655 36.9305 95.5253 37.6136 96.7053 36.9056" stroke="white" stroke-width="4" stroke-linecap="round" stroke-linejoin="round"/>
<path d="M105.375 30.7646C108.602 29.6121 114.6 26.2926 115.69 22.5363C116.156 20.9315 114.289 21.1987 113.362 21.5328C110.345 22.6212 107.616 25.1393 105.776 27.7141C104.546 29.4368 102.846 32.9101 104.472 34.9188C105.983 36.786 109.143 35.5645 110.914 34.8988C111.862 34.5424 116.58 32.9454 115.851 31.487" stroke="white" stroke-width="4" stroke-linecap="round" stroke-linejoin="round"/>
<path d="M137.164 11.2575C137.694 8.9758 138.696 6.64723 136.763 4.81541C135.079 3.2205 132.779 3.85377 130.782 4.55452C124.332 6.8185 126.476 15.3033 126.969 20.4893C127.439 25.431 128.726 31.6322 125.364 35.9022C124.266 37.2959 122.824 38.3576 121.531 39.5548C121.077 39.9746 120.603 40.7126 120.908 39.7956" stroke="white" stroke-width="4" stroke-linecap="round" stroke-linejoin="round"/>
<path d="M121.631 22.0948C125.775 21.9596 129.919 21.247 133.813 19.7868C134.953 19.3593 134.297 20.2886 134.997 20.2886" stroke="white" stroke-width="4" stroke-linecap="round" stroke-linejoin="round"/>
<path d="M15.3556 55.7953C11.8528 67.5183 8.43246 79.3347 3.816 90.6751C3.16408 92.2766 2.49715 93.8919 2.07 95.572C1.82011 96.5549 2.35179 93.5631 2.51152 92.5616C4.04682 82.9349 6.10962 73.2098 11.101 64.7059C15.0551 57.9693 21.6297 50.4695 28.7617 46.965C33.8611 44.4592 37.5121 47.6666 37.6121 52.9656C37.7338 59.4135 33.7739 64.976 29.1229 69.0809C24.5417 73.1244 19.0506 75.7909 12.847 75.1016C10.8805 74.8831 10.7518 74.3471 12.4657 73.8574" stroke="white" stroke-width="4" stroke-linecap="round" stroke-linejoin="round"/>
<path d="M13.1882 76.0248C16.186 77.7379 17.4391 79.3003 18.2455 82.7278C19.043 86.1169 19.4546 89.433 20.6538 92.7222C21.8942 96.1245 23.2967 98.7013 26.9153 99.5055" stroke="white" stroke-width="4" stroke-linecap="round" stroke-linejoin="round"/>
<path d="M38.0809 83.1343C44.4218 82.7643 50.2946 78.7664 52.3188 72.2893C52.8496 70.5909 51.7808 67.5668 49.696 67.525C46.4615 67.46 43.3538 71.634 41.9214 74.0132C38.9803 78.8981 37.1259 88.3612 44.388 90.5316C48.1957 91.6695 52.8685 90.3517 56.0656 88.2121" stroke="white" stroke-width="4" stroke-linecap="round" stroke-linejoin="round"/>
<path d="M83.6049 75.2356C84.6062 73.4523 86.4664 70.5164 84.4167 68.6534C82.1534 66.5963 78.7614 68.4618 76.923 70.0325C73.5116 72.9471 70.7234 76.8732 69.1171 81.0656C68.2434 83.3461 65.827 89.2645 68.8674 91.0958C71.7218 92.815 79.371 91.2297 81.2319 88.2121C81.7762 87.3294 80.8982 86.4676 81.9188 85.9553" stroke="white" stroke-width="4" stroke-linecap="round" stroke-linejoin="round"/>
<path d="M92.5972 71.8505C99.002 76.7054 86.1794 87.8664 94.2833 93.2899" stroke="white" stroke-width="4" stroke-linecap="round" stroke-linejoin="round"/>
<path d="M94.8453 63.3875C95.7812 62.6402 100.465 57.8756 100.465 59.4382" stroke="white" stroke-width="4" stroke-linecap="round" stroke-linejoin="round"/>
<path d="M108.896 75.7998C111.747 73.8595 114.595 71.7629 115.047 76.5207C115.145 77.5583 114.686 78.6213 114.329 79.5611C112.405 84.618 110.033 89.509 107.772 94.4182C104.648 101.199 101.492 107.949 99.4039 115.137C98.5128 118.204 98.7332 117.643 99.9034 115.293" stroke="white" stroke-width="4" stroke-linecap="round" stroke-linejoin="round"/>
<path d="M115.078 77.4924C117.445 75.0232 127.387 67.6058 129.004 74.6401C130.492 81.1133 122.538 88.318 118.013 91.5346C115.093 93.6105 111.587 95.6795 107.897 94.6376C105.997 94.1012 105.882 93.1611 107.21 92.1614" stroke="white" stroke-width="4" stroke-linecap="round" stroke-linejoin="round"/>
<path d="M137.559 86.5195C143.068 84.3715 148.034 82.0849 152.265 77.8372C152.724 77.3771 157.419 72.8961 155.357 71.9758C149.741 69.4703 138.193 80.873 137.247 85.9553C136.101 92.1108 146.479 90.0192 149.674 89.9047C151.836 89.8272 152.277 88.4414 153.858 87.6479" stroke="white" stroke-width="4" stroke-linecap="round" stroke-linejoin="round"/>
<path d="M180.835 72.4147C184.271 69.5927 181.421 69.4589 177.931 70.2206C175.593 70.7308 172.765 71.5366 170.781 73.0102C167.603 75.3702 171.332 77.1675 173.029 78.7462C174.741 80.3388 177.261 82.4779 177.463 85.1404C177.798 89.553 172.541 91.0017 169.282 91.0017C167.014 91.0017 165.251 90.4876 163.506 89.1211C161.344 87.4282 163.15 88.004 163.412 87.0837" stroke="white" stroke-width="4" stroke-linecap="round" stroke-linejoin="round"/>
</svg>
