<svg width="20" height="20" viewBox="0 0 20 20" fill="none" xmlns="http://www.w3.org/2000/svg">
<path d="M6.39995 1.20001C3.53195 1.20001 1.19995 3.53201 1.19995 6.40001V13.6C1.19995 16.468 3.53195 18.8 6.39995 18.8H13.6C16.468 18.8 18.8 16.468 18.8 13.6V6.40001C18.8 3.53201 16.468 1.20001 13.6 1.20001H6.39995ZM14.8 4.40001C15.24 4.40001 15.6 4.76001 15.6 5.20001C15.6 5.64001 15.24 6.00001 14.8 6.00001C14.36 6.00001 14 5.64001 14 5.20001C14 4.76001 14.36 4.40001 14.8 4.40001ZM9.99995 5.60001C12.428 5.60001 14.4 7.57201 14.4 10C14.4 12.428 12.428 14.4 9.99995 14.4C7.57195 14.4 5.59995 12.428 5.59995 10C5.59995 7.57201 7.57195 5.60001 9.99995 5.60001ZM9.99995 6.40001C8.01595 6.40001 6.39995 8.01601 6.39995 10C6.39995 11.984 8.01595 13.6 9.99995 13.6C11.984 13.6 13.6 11.984 13.6 10C13.6 8.01601 11.984 6.40001 9.99995 6.40001Z" fill="black"/>
</svg>
