<svg width="24" height="24" viewBox="0 0 24 24" fill="none" xmlns="http://www.w3.org/2000/svg">
<path fill-rule="evenodd" clip-rule="evenodd" d="M19.8528 14.4468C17.0086 17.291 12.3973 17.291 9.55315 14.4468C6.70898 11.6026 6.70898 6.99132 9.55315 4.14715C12.3973 1.30298 17.0086 1.30298 19.8528 4.14715C22.697 6.99132 22.697 11.6026 19.8528 14.4468ZM9.5473 17.0356C13.1596 19.4478 18.0883 19.0596 21.2769 15.8709C24.9076 12.2402 24.9076 6.35372 21.2769 2.72302C17.6462 -0.907674 11.7597 -0.907674 8.12903 2.72302C4.94036 5.91169 4.55215 10.8403 6.96439 14.4527C6.89122 14.4954 6.82229 14.5481 6.75957 14.6108L0.294947 21.0754C-0.0983151 21.4687 -0.0983157 22.1063 0.294946 22.4996L1.5004 23.705C1.89366 24.0983 2.53127 24.0983 2.92453 23.705L9.38915 17.2404C9.45187 17.1777 9.50458 17.1087 9.5473 17.0356Z" fill="#EB5757"/>
</svg>
