<svg width="18" height="17" viewBox="0 0 18 17" fill="none" xmlns="http://www.w3.org/2000/svg">
<path d="M3.91716 9.78779V10.9201C3.91716 12.0247 4.8126 12.9202 5.91717 12.9202H12.3306C13.4352 12.9202 14.3306 12.0247 14.3306 10.9201V9.78779C15.6889 9.78779 17.4999 7.99788 17.4999 6.20796C17.4999 4.41805 15.4625 3.0756 13.6515 3.29934C12.5196 -0.280498 6.18093 -0.504244 4.36991 3.07561C2.55885 3.07561 0.63465 4.64178 0.521449 5.76048C0.295048 7.99788 1.87974 9.78779 3.91716 9.78779Z" fill="#2C2C2C"/>
<path d="M4.36991 14.7101H14.1042M4.36991 16.5H14.1042M3.91716 9.78779V10.9201C3.91716 12.0247 4.8126 12.9202 5.91717 12.9202H12.3306C13.4352 12.9202 14.3306 12.0247 14.3306 10.9201V9.78779C15.6889 9.78779 17.4999 7.99788 17.4999 6.20796C17.4999 4.41805 15.4625 3.0756 13.6515 3.29934C12.5196 -0.280498 6.18093 -0.504244 4.36991 3.07561C2.55885 3.07561 0.63465 4.64178 0.521449 5.76048C0.295048 7.99788 1.87974 9.78779 3.91716 9.78779Z" stroke="#2C2C2C" stroke-linecap="round"/>
</svg>
