<svg width="311" height="667" viewBox="0 0 311 667" fill="none" xmlns="http://www.w3.org/2000/svg">
<rect width="311" height="667" fill="#EB5757"/>
<path d="M97.517 39.5455H102.068L106.875 51.2727H107.08L111.886 39.5455H116.438V57H112.858V45.6392H112.713L108.196 56.9148H105.759L101.241 45.5966H101.097V57H97.517V39.5455ZM122.487 57H118.532L124.558 39.5455H129.313L135.33 57H131.376L127.004 43.5341H126.867L122.487 57ZM122.239 50.1392H131.58V53.0199H122.239V50.1392ZM141.121 39.5455V57H137.431V39.5455H141.121ZM158.757 39.5455V57H155.57L147.976 46.0142H147.848V57H144.158V39.5455H147.396L154.93 50.5227H155.084V39.5455H158.757ZM167.361 39.5455H171.912L176.719 51.2727H176.923L181.73 39.5455H186.281V57H182.702V45.6392H182.557L178.04 56.9148H175.602L171.085 45.5966H170.94V57H167.361V39.5455ZM189.322 57V39.5455H201.083V42.5881H193.012V46.7472H200.478V49.7898H193.012V53.9574H201.117V57H189.322ZM218.616 39.5455V57H215.429L207.835 46.0142H207.707V57H204.017V39.5455H207.256L214.79 50.5227H214.943V39.5455H218.616ZM232.447 39.5455H236.137V50.8807C236.137 52.1534 235.833 53.267 235.225 54.2216C234.623 55.1761 233.779 55.9205 232.694 56.4545C231.609 56.983 230.344 57.2472 228.901 57.2472C227.452 57.2472 226.185 56.983 225.1 56.4545C224.015 55.9205 223.171 55.1761 222.569 54.2216C221.967 53.267 221.665 52.1534 221.665 50.8807V39.5455H225.356V50.5653C225.356 51.2301 225.501 51.821 225.79 52.3381C226.086 52.8551 226.501 53.2614 227.035 53.5568C227.569 53.8523 228.191 54 228.901 54C229.617 54 230.239 53.8523 230.768 53.5568C231.302 53.2614 231.714 52.8551 232.004 52.3381C232.299 51.821 232.447 51.2301 232.447 50.5653V39.5455Z" fill="white"/>
</svg>
