<svg width="7" height="14" viewBox="0 0 7 14" fill="none" xmlns="http://www.w3.org/2000/svg">
<path d="M6.42188 9.68164V11H0.585938V9.875L3.3457 6.91602C3.62305 6.60742 3.8418 6.33594 4.00195 6.10156C4.16211 5.86328 4.27734 5.65039 4.34766 5.46289C4.42188 5.27148 4.45898 5.08984 4.45898 4.91797C4.45898 4.66016 4.41602 4.43945 4.33008 4.25586C4.24414 4.06836 4.11719 3.92383 3.94922 3.82227C3.78516 3.7207 3.58203 3.66992 3.33984 3.66992C3.08203 3.66992 2.85938 3.73242 2.67188 3.85742C2.48828 3.98242 2.34766 4.15625 2.25 4.37891C2.15625 4.60156 2.10938 4.85352 2.10938 5.13477H0.416016C0.416016 4.62695 0.537109 4.16211 0.779297 3.74023C1.02148 3.31445 1.36328 2.97656 1.80469 2.72656C2.24609 2.47266 2.76953 2.3457 3.375 2.3457C3.97266 2.3457 4.47656 2.44336 4.88672 2.63867C5.30078 2.83008 5.61328 3.10742 5.82422 3.4707C6.03906 3.83008 6.14648 4.25977 6.14648 4.75977C6.14648 5.04102 6.10156 5.31641 6.01172 5.58594C5.92188 5.85156 5.79297 6.11719 5.625 6.38281C5.46094 6.64453 5.26172 6.91016 5.02734 7.17969C4.79297 7.44922 4.5332 7.72852 4.24805 8.01758L2.76562 9.68164H6.42188Z" fill="#EB5757"/>
</svg>
