<svg width="7" height="14" viewBox="0 0 7 14" fill="none" xmlns="http://www.w3.org/2000/svg">
<path d="M2.31445 6.00195H3.2168C3.50586 6.00195 3.74414 5.95312 3.93164 5.85547C4.11914 5.75391 4.25781 5.61328 4.34766 5.43359C4.44141 5.25 4.48828 5.03711 4.48828 4.79492C4.48828 4.57617 4.44531 4.38281 4.35938 4.21484C4.27734 4.04297 4.15039 3.91016 3.97852 3.81641C3.80664 3.71875 3.58984 3.66992 3.32812 3.66992C3.12109 3.66992 2.92969 3.71094 2.75391 3.79297C2.57812 3.875 2.4375 3.99023 2.33203 4.13867C2.22656 4.28711 2.17383 4.4668 2.17383 4.67773H0.480469C0.480469 4.20898 0.605469 3.80078 0.855469 3.45312C1.10938 3.10547 1.44922 2.83398 1.875 2.63867C2.30078 2.44336 2.76953 2.3457 3.28125 2.3457C3.85938 2.3457 4.36523 2.43945 4.79883 2.62695C5.23242 2.81055 5.57031 3.08203 5.8125 3.44141C6.05469 3.80078 6.17578 4.24609 6.17578 4.77734C6.17578 5.04688 6.11328 5.30859 5.98828 5.5625C5.86328 5.8125 5.68359 6.03906 5.44922 6.24219C5.21875 6.44141 4.9375 6.60156 4.60547 6.72266C4.27344 6.83984 3.90039 6.89844 3.48633 6.89844H2.31445V6.00195ZM2.31445 7.28516V6.41211H3.48633C3.95117 6.41211 4.35938 6.46484 4.71094 6.57031C5.0625 6.67578 5.35742 6.82812 5.5957 7.02734C5.83398 7.22266 6.01367 7.45508 6.13477 7.72461C6.25586 7.99023 6.31641 8.28516 6.31641 8.60938C6.31641 9.00781 6.24023 9.36328 6.08789 9.67578C5.93555 9.98438 5.7207 10.2461 5.44336 10.4609C5.16992 10.6758 4.84961 10.8398 4.48242 10.9531C4.11523 11.0625 3.71484 11.1172 3.28125 11.1172C2.92188 11.1172 2.56836 11.0684 2.2207 10.9707C1.87695 10.8691 1.56445 10.7188 1.2832 10.5195C1.00586 10.3164 0.783203 10.0625 0.615234 9.75781C0.451172 9.44922 0.369141 9.08398 0.369141 8.66211H2.0625C2.0625 8.88086 2.11719 9.07617 2.22656 9.24805C2.33594 9.41992 2.48633 9.55469 2.67773 9.65234C2.87305 9.75 3.08984 9.79883 3.32812 9.79883C3.59766 9.79883 3.82812 9.75 4.01953 9.65234C4.21484 9.55078 4.36328 9.41016 4.46484 9.23047C4.57031 9.04688 4.62305 8.83398 4.62305 8.5918C4.62305 8.2793 4.56641 8.0293 4.45312 7.8418C4.33984 7.65039 4.17773 7.50977 3.9668 7.41992C3.75586 7.33008 3.50586 7.28516 3.2168 7.28516H2.31445Z" fill="#EB5757"/>
</svg>
