<svg width="7" height="14" viewBox="0 0 7 14" fill="none" xmlns="http://www.w3.org/2000/svg">
<path d="M4.93945 2.38086H5.18555V3.72852H5.08594C4.64062 3.72852 4.24414 3.79492 3.89648 3.92773C3.54883 4.06055 3.25391 4.25 3.01172 4.49609C2.77344 4.73828 2.58984 5.03125 2.46094 5.375C2.33594 5.71875 2.27344 6.10352 2.27344 6.5293V7.94727C2.27344 8.25195 2.30273 8.52148 2.36133 8.75586C2.42383 8.98633 2.51172 9.17969 2.625 9.33594C2.74219 9.48828 2.87891 9.60352 3.03516 9.68164C3.19141 9.75586 3.36719 9.79297 3.5625 9.79297C3.74609 9.79297 3.91211 9.75391 4.06055 9.67578C4.21289 9.59766 4.3418 9.48828 4.44727 9.34766C4.55664 9.20312 4.63867 9.03516 4.69336 8.84375C4.75195 8.64844 4.78125 8.43555 4.78125 8.20508C4.78125 7.97461 4.75195 7.76172 4.69336 7.56641C4.63867 7.37109 4.55664 7.20312 4.44727 7.0625C4.33789 6.91797 4.20508 6.80664 4.04883 6.72852C3.89258 6.65039 3.7168 6.61133 3.52148 6.61133C3.25586 6.61133 3.02148 6.67383 2.81836 6.79883C2.61914 6.91992 2.46289 7.07617 2.34961 7.26758C2.23633 7.45898 2.17578 7.66016 2.16797 7.87109L1.6582 7.54297C1.66992 7.24219 1.73242 6.95703 1.8457 6.6875C1.96289 6.41797 2.12305 6.17969 2.32617 5.97266C2.5332 5.76172 2.78125 5.59766 3.07031 5.48047C3.35938 5.35938 3.68555 5.29883 4.04883 5.29883C4.44727 5.29883 4.79688 5.375 5.09766 5.52734C5.40234 5.67969 5.65625 5.88867 5.85938 6.1543C6.0625 6.41992 6.21484 6.72656 6.31641 7.07422C6.41797 7.42188 6.46875 7.79297 6.46875 8.1875C6.46875 8.60156 6.40039 8.98633 6.26367 9.3418C6.13086 9.69727 5.9375 10.0078 5.68359 10.2734C5.43359 10.5391 5.13281 10.7461 4.78125 10.8945C4.42969 11.043 4.03516 11.1172 3.59766 11.1172C3.14453 11.1172 2.73242 11.0352 2.36133 10.8711C1.99414 10.7031 1.67773 10.4688 1.41211 10.168C1.14648 9.86719 0.941406 9.50977 0.796875 9.0957C0.65625 8.68164 0.585938 8.22852 0.585938 7.73633V7.08008C0.585938 6.39258 0.685547 5.76367 0.884766 5.19336C1.08789 4.61914 1.37891 4.12305 1.75781 3.70508C2.13672 3.2832 2.59375 2.95703 3.12891 2.72656C3.66406 2.49609 4.26758 2.38086 4.93945 2.38086Z" fill="#EB5757"/>
</svg>
