<svg width="7" height="14" viewBox="0 0 7 14" fill="none" xmlns="http://www.w3.org/2000/svg">
<path d="M2.17383 7.11523L0.826172 6.79297L1.3125 2.46875H6.10547V3.83398H2.70117L2.49023 5.72656C2.60352 5.66016 2.77539 5.58984 3.00586 5.51562C3.23633 5.4375 3.49414 5.39844 3.7793 5.39844C4.19336 5.39844 4.56055 5.46289 4.88086 5.5918C5.20117 5.7207 5.47266 5.9082 5.69531 6.1543C5.92188 6.40039 6.09375 6.70117 6.21094 7.05664C6.32812 7.41211 6.38672 7.81445 6.38672 8.26367C6.38672 8.64258 6.32812 9.00391 6.21094 9.34766C6.09375 9.6875 5.91602 9.99219 5.67773 10.2617C5.43945 10.5273 5.14062 10.7363 4.78125 10.8887C4.42188 11.041 3.99609 11.1172 3.50391 11.1172C3.13672 11.1172 2.78125 11.0625 2.4375 10.9531C2.09766 10.8438 1.79102 10.6816 1.51758 10.4668C1.24805 10.252 1.03125 9.99219 0.867188 9.6875C0.707031 9.37891 0.623047 9.02734 0.615234 8.63281H2.29102C2.31445 8.875 2.37695 9.08398 2.47852 9.25977C2.58398 9.43164 2.72266 9.56445 2.89453 9.6582C3.06641 9.75195 3.26758 9.79883 3.49805 9.79883C3.71289 9.79883 3.89648 9.75781 4.04883 9.67578C4.20117 9.59375 4.32422 9.48047 4.41797 9.33594C4.51172 9.1875 4.58008 9.01562 4.62305 8.82031C4.66992 8.62109 4.69336 8.40625 4.69336 8.17578C4.69336 7.94531 4.66602 7.73633 4.61133 7.54883C4.55664 7.36133 4.47266 7.19922 4.35938 7.0625C4.24609 6.92578 4.10156 6.82031 3.92578 6.74609C3.75391 6.67188 3.55273 6.63477 3.32227 6.63477C3.00977 6.63477 2.76758 6.68359 2.5957 6.78125C2.42773 6.87891 2.28711 6.99023 2.17383 7.11523Z" fill="#EB5757"/>
</svg>
