<svg width="7" height="14" viewBox="0 0 7 14" fill="none" xmlns="http://www.w3.org/2000/svg">
<path d="M6.33398 8.66211C6.33398 9.19727 6.20898 9.64844 5.95898 10.0156C5.70898 10.3789 5.36523 10.6543 4.92773 10.8418C4.49414 11.0254 4.00195 11.1172 3.45117 11.1172C2.90039 11.1172 2.40625 11.0254 1.96875 10.8418C1.53125 10.6543 1.18555 10.3789 0.931641 10.0156C0.677734 9.64844 0.550781 9.19727 0.550781 8.66211C0.550781 8.30273 0.623047 7.97852 0.767578 7.68945C0.912109 7.39648 1.11328 7.14648 1.37109 6.93945C1.63281 6.72852 1.93945 6.56836 2.29102 6.45898C2.64258 6.3457 3.02539 6.28906 3.43945 6.28906C3.99414 6.28906 4.49023 6.38672 4.92773 6.58203C5.36523 6.77734 5.70898 7.05273 5.95898 7.4082C6.20898 7.76367 6.33398 8.18164 6.33398 8.66211ZM4.63477 8.55078C4.63477 8.28906 4.58398 8.06445 4.48242 7.87695C4.38477 7.68555 4.24609 7.53906 4.06641 7.4375C3.88672 7.33594 3.67773 7.28516 3.43945 7.28516C3.20117 7.28516 2.99219 7.33594 2.8125 7.4375C2.63281 7.53906 2.49219 7.68555 2.39062 7.87695C2.29297 8.06445 2.24414 8.28906 2.24414 8.55078C2.24414 8.80859 2.29297 9.03125 2.39062 9.21875C2.49219 9.40625 2.63281 9.55078 2.8125 9.65234C2.99609 9.75 3.20898 9.79883 3.45117 9.79883C3.69336 9.79883 3.90234 9.75 4.07812 9.65234C4.25781 9.55078 4.39453 9.40625 4.48828 9.21875C4.58594 9.03125 4.63477 8.80859 4.63477 8.55078ZM6.15234 4.73047C6.15234 5.16406 6.03711 5.54883 5.80664 5.88477C5.57617 6.2168 5.25586 6.47656 4.8457 6.66406C4.43945 6.85156 3.97461 6.94531 3.45117 6.94531C2.92383 6.94531 2.45508 6.85156 2.04492 6.66406C1.63477 6.47656 1.31445 6.2168 1.08398 5.88477C0.853516 5.54883 0.738281 5.16406 0.738281 4.73047C0.738281 4.21484 0.853516 3.78125 1.08398 3.42969C1.31836 3.07422 1.63867 2.80469 2.04492 2.62109C2.45508 2.4375 2.91992 2.3457 3.43945 2.3457C3.9668 2.3457 4.43359 2.4375 4.83984 2.62109C5.25 2.80469 5.57031 3.07422 5.80078 3.42969C6.03516 3.78125 6.15234 4.21484 6.15234 4.73047ZM4.46484 4.80664C4.46484 4.57617 4.42383 4.37695 4.3418 4.20898C4.25977 4.03711 4.14258 3.9043 3.99023 3.81055C3.8418 3.7168 3.6582 3.66992 3.43945 3.66992C3.22852 3.66992 3.04688 3.71484 2.89453 3.80469C2.74609 3.89453 2.63086 4.02539 2.54883 4.19727C2.4707 4.36523 2.43164 4.56836 2.43164 4.80664C2.43164 5.03711 2.4707 5.24023 2.54883 5.41602C2.63086 5.58789 2.74805 5.72266 2.90039 5.82031C3.05273 5.91797 3.23633 5.9668 3.45117 5.9668C3.66602 5.9668 3.84766 5.91797 3.99609 5.82031C4.14844 5.72266 4.26367 5.58789 4.3418 5.41602C4.42383 5.24023 4.46484 5.03711 4.46484 4.80664Z" fill="#EB5757"/>
</svg>
