<svg width="17" height="19" viewBox="0 0 17 19" fill="none" xmlns="http://www.w3.org/2000/svg">
<path d="M0.509466 16.6836C0.45731 17.2747 0.9231 17.7834 1.5165 17.7834H15.4835C16.0769 17.7834 16.5427 17.2747 16.4905 16.6836L15.5661 6.20647C15.52 5.68461 15.0829 5.28438 14.5591 5.28438H13.6466H3.35336H2.44095C1.91706 5.28438 1.47996 5.68461 1.43392 6.20647L0.509466 16.6836Z" fill="#2C2C2C"/>
<path d="M3.35336 5.28438H2.44095C1.91706 5.28438 1.47996 5.68461 1.43392 6.20647L0.509466 16.6836C0.45731 17.2747 0.9231 17.7834 1.5165 17.7834H15.4835C16.0769 17.7834 16.5427 17.2747 16.4905 16.6836L15.5661 6.20647C15.52 5.68461 15.0829 5.28438 14.5591 5.28438H13.6466M3.35336 5.28438C3.72098 3.07879 5.19145 0.505473 8.5 0.505473C12.1762 0.505473 13.279 3.44641 13.6466 5.28438M3.35336 5.28438H13.6466" stroke="#2C2C2C"/>
</svg>
