<svg width="20" height="16" viewBox="0 0 20 16" fill="none" xmlns="http://www.w3.org/2000/svg">
<path d="M19.6911 1.89367C18.9667 2.21529 18.1882 2.43171 17.3706 2.5309C18.2033 2.02893 18.8465 1.2384 19.1471 0.294571C18.3656 0.757467 17.4999 1.09412 16.5801 1.27447C15.8437 0.489949 14.7947 0 13.6314 0C11.4011 0 9.59158 1.80951 9.59158 4.03983C9.59158 4.35544 9.62765 4.66504 9.69678 4.95961C6.33928 4.79128 3.36352 3.18016 1.37066 0.736427C1.02198 1.33459 0.823596 2.02893 0.823596 2.77137C0.823596 4.17208 1.53598 5.40747 2.62108 6.13188C1.95679 6.11084 1.33459 5.93049 0.790531 5.6269C0.790531 5.64493 0.790531 5.65996 0.790531 5.678C0.790531 7.63479 2.18223 9.26695 4.03081 9.63967C3.69115 9.73285 3.33646 9.78095 2.96675 9.78095C2.70524 9.78095 2.45275 9.7569 2.20627 9.70881C2.72027 11.3109 4.21116 12.4832 5.97858 12.5132C4.59891 13.5983 2.85553 14.2416 0.961863 14.2416C0.634229 14.2416 0.315611 14.2236 0 14.1875C1.78546 15.3327 3.91057 16 6.19199 16C13.6224 16 17.6863 9.84407 17.6863 4.50873C17.6863 4.33139 17.6833 4.15705 17.6742 3.98272C18.4648 3.41762 19.1501 2.70524 19.6911 1.89367Z" fill="black"/>
</svg>
