<svg width="67" height="15" viewBox="0 0 67 15" fill="none" xmlns="http://www.w3.org/2000/svg">
<path fill-rule="evenodd" clip-rule="evenodd" d="M9.5158 5.59325L7.69844 0L5.88109 5.59325H0L4.7579 9.05006L2.94054 14.6433L7.69844 11.1865L12.4563 14.6433L10.639 9.05006L15.3969 5.59325H9.5158ZM26.7169 5.59325L24.8995 0L23.0822 5.59325H17.2011L21.959 9.05006L20.1416 14.6433L24.8995 11.1865L29.6574 14.6433L27.8401 9.05006L32.598 5.59325H26.7169ZM42.1006 0L43.9179 5.59325H49.799L45.0411 9.05006L46.8585 14.6433L42.1006 11.1865L37.3427 14.6433L39.16 9.05006L34.4021 5.59325H40.2832L42.1006 0ZM61.119 5.59325L59.3017 0L57.4843 5.59325H51.6032L56.3611 9.05006L54.5438 14.6433L59.3017 11.1865L64.0596 14.6433L62.2422 9.05006L67.0001 5.59325H61.119Z" fill="#D9D9D9"/>
</svg>
